<svg width="254" height="253" viewBox="0 0 254 253" fill="none" xmlns="http://www.w3.org/2000/svg">
<path d="M53.28 149.275C46.6433 151.367 39.4723 147.685 38.3264 140.821C36.691 131.026 36.6833 120.998 38.332 111.146C40.6761 97.1376 46.3023 83.8831 54.7505 72.466C63.1988 61.0488 74.2291 51.7932 86.9398 45.4559C99.6505 39.1186 113.681 35.8795 127.883 36.0034C142.085 36.1274 156.057 39.6108 168.655 46.169C181.253 52.7272 192.12 62.1739 200.368 73.7367C208.616 85.2995 214.01 98.6502 216.109 112.697C217.586 122.576 217.403 132.603 215.597 142.368C214.331 149.211 207.097 152.767 200.498 150.559C193.899 148.351 190.473 141.201 191.364 134.3C192.128 128.381 192.074 122.364 191.186 116.422C189.674 106.308 185.791 96.6957 179.852 88.3704C173.914 80.0452 166.09 73.2436 157.019 68.5217C147.948 63.7998 137.889 61.2917 127.663 61.2025C117.437 61.1132 107.336 63.4454 98.184 68.0083C89.0323 72.5711 81.0905 79.2352 75.0077 87.4555C68.925 95.6758 64.8741 105.219 63.1863 115.305C62.1947 121.231 62.0353 127.246 62.6963 133.177C63.4671 140.093 59.9167 147.182 53.28 149.275Z" fill="#EFEFEF"/>
<path d="M53.187 149.671C46.5501 151.763 39.3795 148.081 38.2341 141.217C36.7097 132.082 36.6003 122.741 37.9328 113.525C39.8681 100.139 44.7953 87.3617 52.3483 76.1424C59.9013 64.923 69.8857 55.5502 81.5595 48.7206C89.5967 44.0185 98.2924 40.6052 107.33 38.5803C114.12 37.0589 120.231 42.3168 120.79 49.2531C121.348 56.1894 116.117 62.1467 109.419 64.0354C104.138 65.5247 99.0505 67.6835 94.2847 70.4717C85.8796 75.389 78.6908 82.1374 73.2526 90.2154C67.8145 98.2933 64.2669 107.493 62.8734 117.131C62.0834 122.595 61.9974 128.121 62.6047 133.575C63.3749 140.491 59.8239 147.579 53.187 149.671Z" fill="#ED8F72"/>
<path d="M92.1576 123.186C92.2883 123.186 92.4236 123.223 92.5636 123.298C92.7129 123.363 92.8249 123.452 92.8996 123.564L96.3016 128.8L95.6016 128.772L99.0876 123.564C99.2649 123.312 99.4936 123.186 99.7736 123.186C99.9976 123.186 100.198 123.265 100.376 123.424C100.553 123.583 100.642 123.788 100.642 124.04V132.146C100.642 132.389 100.562 132.594 100.404 132.762C100.245 132.921 100.035 133 99.7736 133C99.5123 133 99.2976 132.921 99.1296 132.762C98.9709 132.594 98.8916 132.389 98.8916 132.146V125.552L99.4376 125.678L96.5816 130.032C96.4976 130.135 96.3903 130.223 96.2596 130.298C96.1383 130.373 96.0123 130.405 95.8816 130.396C95.7603 130.405 95.6343 130.373 95.5036 130.298C95.3823 130.223 95.2796 130.135 95.1956 130.032L92.5216 125.804L92.8856 125.062V132.146C92.8856 132.389 92.8109 132.594 92.6616 132.762C92.5123 132.921 92.3163 133 92.0736 133C91.8403 133 91.6489 132.921 91.4996 132.762C91.3503 132.594 91.2756 132.389 91.2756 132.146V124.04C91.2756 123.807 91.3596 123.606 91.5276 123.438C91.7049 123.27 91.9149 123.186 92.1576 123.186ZM111.762 128.1C111.762 128.8 111.646 129.453 111.412 130.06C111.179 130.667 110.848 131.203 110.418 131.67C109.998 132.127 109.494 132.487 108.906 132.748C108.328 133.009 107.693 133.14 107.002 133.14C106.312 133.14 105.677 133.009 105.098 132.748C104.52 132.487 104.016 132.127 103.586 131.67C103.166 131.203 102.84 130.667 102.606 130.06C102.373 129.453 102.256 128.8 102.256 128.1C102.256 127.4 102.373 126.747 102.606 126.14C102.84 125.533 103.166 125.001 103.586 124.544C104.016 124.077 104.52 123.713 105.098 123.452C105.677 123.191 106.312 123.06 107.002 123.06C107.693 123.06 108.328 123.191 108.906 123.452C109.494 123.713 109.998 124.077 110.418 124.544C110.848 125.001 111.179 125.533 111.412 126.14C111.646 126.747 111.762 127.4 111.762 128.1ZM109.942 128.1C109.942 127.475 109.816 126.91 109.564 126.406C109.312 125.893 108.967 125.487 108.528 125.188C108.09 124.889 107.581 124.74 107.002 124.74C106.424 124.74 105.915 124.889 105.476 125.188C105.038 125.487 104.692 125.888 104.44 126.392C104.198 126.896 104.076 127.465 104.076 128.1C104.076 128.725 104.198 129.295 104.44 129.808C104.692 130.312 105.038 130.713 105.476 131.012C105.915 131.311 106.424 131.46 107.002 131.46C107.581 131.46 108.09 131.311 108.528 131.012C108.967 130.713 109.312 130.312 109.564 129.808C109.816 129.295 109.942 128.725 109.942 128.1ZM117.569 123.2C118.241 123.2 118.839 123.326 119.361 123.578C119.884 123.83 120.323 124.185 120.677 124.642C121.041 125.09 121.312 125.613 121.489 126.21C121.676 126.798 121.769 127.428 121.769 128.1C121.769 129.005 121.606 129.831 121.279 130.578C120.953 131.315 120.477 131.903 119.851 132.342C119.235 132.781 118.475 133 117.569 133H114.223C113.981 133 113.775 132.921 113.607 132.762C113.449 132.594 113.369 132.389 113.369 132.146V124.054C113.369 123.811 113.449 123.611 113.607 123.452C113.775 123.284 113.981 123.2 114.223 123.2H117.569ZM117.429 131.39C118.017 131.39 118.498 131.241 118.871 130.942C119.245 130.634 119.515 130.233 119.683 129.738C119.861 129.234 119.949 128.688 119.949 128.1C119.949 127.661 119.898 127.246 119.795 126.854C119.702 126.453 119.553 126.103 119.347 125.804C119.142 125.496 118.881 125.253 118.563 125.076C118.246 124.899 117.868 124.81 117.429 124.81H114.979L115.119 124.684V131.544L115.035 131.39H117.429ZM124.231 123.2H128.921C129.164 123.2 129.364 123.279 129.523 123.438C129.691 123.587 129.775 123.783 129.775 124.026C129.775 124.259 129.691 124.451 129.523 124.6C129.364 124.74 129.164 124.81 128.921 124.81H125.001L125.127 124.572V127.302L125.015 127.19H128.291C128.534 127.19 128.734 127.269 128.893 127.428C129.061 127.577 129.145 127.773 129.145 128.016C129.145 128.249 129.061 128.441 128.893 128.59C128.734 128.73 128.534 128.8 128.291 128.8H125.057L125.127 128.688V131.516L125.015 131.39H128.921C129.164 131.39 129.364 131.474 129.523 131.642C129.691 131.801 129.775 131.987 129.775 132.202C129.775 132.435 129.691 132.627 129.523 132.776C129.364 132.925 129.164 133 128.921 133H124.231C123.988 133 123.783 132.921 123.615 132.762C123.456 132.594 123.377 132.389 123.377 132.146V124.054C123.377 123.811 123.456 123.611 123.615 123.452C123.783 123.284 123.988 123.2 124.231 123.2ZM132.397 133C132.136 133 131.902 132.921 131.697 132.762C131.492 132.594 131.389 132.389 131.389 132.146V124.054C131.389 123.811 131.468 123.611 131.627 123.452C131.795 123.284 132 123.2 132.243 123.2H136.275C136.76 123.2 137.213 123.331 137.633 123.592C138.062 123.844 138.408 124.199 138.669 124.656C138.93 125.104 139.061 125.622 139.061 126.21C139.061 126.565 138.986 126.91 138.837 127.246C138.697 127.582 138.501 127.885 138.249 128.156C138.006 128.427 137.731 128.637 137.423 128.786L137.437 128.464C137.698 128.604 137.913 128.772 138.081 128.968C138.258 129.155 138.394 129.36 138.487 129.584C138.59 129.799 138.65 130.032 138.669 130.284C138.706 130.517 138.73 130.723 138.739 130.9C138.758 131.077 138.786 131.227 138.823 131.348C138.87 131.469 138.954 131.563 139.075 131.628C139.28 131.749 139.406 131.927 139.453 132.16C139.509 132.384 139.458 132.585 139.299 132.762C139.196 132.883 139.066 132.963 138.907 133C138.748 133.028 138.59 133.028 138.431 133C138.272 132.963 138.142 132.916 138.039 132.86C137.88 132.767 137.722 132.631 137.563 132.454C137.404 132.267 137.274 132.02 137.171 131.712C137.078 131.404 137.031 131.007 137.031 130.522C137.031 130.363 137.003 130.219 136.947 130.088C136.891 129.948 136.812 129.831 136.709 129.738C136.606 129.635 136.476 129.561 136.317 129.514C136.158 129.458 135.972 129.43 135.757 129.43H132.929L133.139 129.108V132.146C133.139 132.389 133.074 132.594 132.943 132.762C132.812 132.921 132.63 133 132.397 133ZM132.943 127.988H136.205C136.373 127.988 136.536 127.913 136.695 127.764C136.854 127.605 136.984 127.395 137.087 127.134C137.19 126.863 137.241 126.569 137.241 126.252C137.241 125.841 137.129 125.501 136.905 125.23C136.69 124.95 136.457 124.81 136.205 124.81H132.971L133.139 124.362V128.324L132.943 127.988ZM144.598 125.398L141.574 132.51C141.509 132.687 141.406 132.827 141.266 132.93C141.136 133.023 140.991 133.07 140.832 133.07C140.58 133.07 140.394 133 140.272 132.86C140.151 132.72 140.09 132.547 140.09 132.342C140.09 132.258 140.104 132.169 140.132 132.076L143.618 123.704C143.693 123.517 143.805 123.373 143.954 123.27C144.113 123.167 144.281 123.125 144.458 123.144C144.626 123.144 144.78 123.195 144.92 123.298C145.07 123.391 145.177 123.527 145.242 123.704L148.686 131.908C148.733 132.029 148.756 132.141 148.756 132.244C148.756 132.496 148.672 132.697 148.504 132.846C148.346 132.995 148.168 133.07 147.972 133.07C147.804 133.07 147.65 133.019 147.51 132.916C147.38 132.813 147.277 132.673 147.202 132.496L144.192 125.482L144.598 125.398ZM142.008 130.802L142.778 129.192H146.558L146.824 130.802H142.008ZM152.562 133C152.301 133 152.086 132.921 151.918 132.762C151.75 132.594 151.666 132.389 151.666 132.146V124.026H153.486V132.146C153.486 132.389 153.398 132.594 153.22 132.762C153.052 132.921 152.833 133 152.562 133ZM149.468 124.81C149.226 124.81 149.02 124.735 148.852 124.586C148.694 124.437 148.614 124.241 148.614 123.998C148.614 123.755 148.694 123.564 148.852 123.424C149.02 123.275 149.226 123.2 149.468 123.2H155.684C155.927 123.2 156.128 123.275 156.286 123.424C156.454 123.573 156.538 123.769 156.538 124.012C156.538 124.255 156.454 124.451 156.286 124.6C156.128 124.74 155.927 124.81 155.684 124.81H149.468ZM158.862 123.2H163.552C163.795 123.2 163.995 123.279 164.154 123.438C164.322 123.587 164.406 123.783 164.406 124.026C164.406 124.259 164.322 124.451 164.154 124.6C163.995 124.74 163.795 124.81 163.552 124.81H159.632L159.758 124.572V127.302L159.646 127.19H162.922C163.165 127.19 163.365 127.269 163.524 127.428C163.692 127.577 163.776 127.773 163.776 128.016C163.776 128.249 163.692 128.441 163.524 128.59C163.365 128.73 163.165 128.8 162.922 128.8H159.688L159.758 128.688V131.516L159.646 131.39H163.552C163.795 131.39 163.995 131.474 164.154 131.642C164.322 131.801 164.406 131.987 164.406 132.202C164.406 132.435 164.322 132.627 164.154 132.776C163.995 132.925 163.795 133 163.552 133H158.862C158.619 133 158.414 132.921 158.246 132.762C158.087 132.594 158.008 132.389 158.008 132.146V124.054C158.008 123.811 158.087 123.611 158.246 123.452C158.414 123.284 158.619 123.2 158.862 123.2Z" fill="#4C4C4C"/>
</svg>
