<svg width="137" height="116" viewBox="0 0 137 116" fill="none" xmlns="http://www.w3.org/2000/svg">
<path d="M92.0499 122.779L86.2418 106.907C86.0537 106.393 86.1377 105.89 86.4296 105.785L92.9227 103.432C93.2146 103.326 93.6038 103.657 93.792 104.171L99.6 120.043C99.7882 120.557 99.7041 121.06 99.4122 121.166L92.9191 123.519C92.6272 123.624 92.2381 123.293 92.0499 122.779Z" fill="white"/>
<path d="M60.4803 95.8481L60.7164 95.7704C61.1707 95.6096 61.5421 95.2758 61.7492 94.8426C61.9563 94.4093 61.9821 93.9119 61.8209 93.4598L61.8107 93.4326L42.335 51.6069C42.2051 51.3781 39.7185 47.0308 41.601 43.0445C42.9263 40.2458 46.1336 38.1485 51.169 36.8278C51.6294 36.7268 52.0306 36.4479 52.2844 36.0525C52.5381 35.6571 52.6237 35.1776 52.5221 34.7195C52.4206 34.2613 52.1404 33.8621 51.743 33.6095C51.3457 33.357 50.8638 33.2719 50.4034 33.3729C50.3513 33.3845 50.2965 33.3974 50.2494 33.4146C43.9688 35.0523 39.9395 37.8887 38.1008 41.758C35.4786 47.3718 38.744 52.9853 38.8829 53.2192L58.2454 94.8498C58.4365 95.2546 58.767 95.5779 59.177 95.7611C59.587 95.9442 60.0494 95.9751 60.4803 95.8481V95.8481Z" fill="white"/>
<path d="M56.8187 29.3453C58.431 31.5247 59.1619 34.2272 58.8665 36.9174C58.8203 37.1389 58.7021 37.339 58.5301 37.4869C58.3582 37.6348 58.142 37.7222 57.9152 37.7355C55.9352 37.8798 51.0171 38.0335 50.5272 36.0774L50.4095 35.6405L50.2847 35.1774L50.1599 34.7143L50.0466 34.2698C49.5117 32.3128 53.814 30.0135 55.6024 29.1518C55.7991 29.0496 56.0237 29.0133 56.2428 29.0481C56.4619 29.083 56.6638 29.1872 56.8187 29.3453V29.3453Z" fill="white"/>
<path d="M106.771 88.1622L106.527 88.2121C106.292 88.2552 106.051 88.2519 105.817 88.2023C105.584 88.1528 105.363 88.0579 105.166 87.9232C104.969 87.7885 104.801 87.6166 104.672 87.4173C104.542 87.218 104.453 86.9952 104.409 86.7616L104.404 86.7326L98.2312 37.3593C98.2286 37.0966 98.1962 32.0945 94.5622 29.58C92.0093 27.8137 88.1759 27.596 83.1503 28.9574C82.7073 29.0786 82.2343 29.0243 81.8306 28.8058C81.4269 28.5874 81.124 28.2218 80.9855 27.7858C80.8469 27.3499 80.8835 26.8774 81.0875 26.4677C81.2916 26.058 81.6472 25.7429 82.0797 25.5886C82.1307 25.5726 82.1832 25.5557 82.2334 25.5476C88.4948 23.8389 93.4096 24.289 96.9462 26.7236C102.04 30.2776 102.033 36.7652 102.03 37.0354L108.204 86.1841C108.242 86.6298 108.118 87.0744 107.856 87.4373C107.593 87.8002 107.208 88.0574 106.771 88.1622V88.1622Z" fill="white"/>
<path d="M74.4987 25.2949C74.1983 27.9846 74.924 30.6885 76.5322 32.8709C76.6835 33.0397 76.8865 33.1542 77.1097 33.1967C77.333 33.2391 77.5641 33.2071 77.7673 33.1056C79.5542 32.2449 83.8898 29.9296 83.3307 27.992L83.213 27.5551L83.0882 27.092L82.9639 26.6329L82.836 26.1911C82.3154 24.2303 77.4343 24.3812 75.4525 24.5253C75.2317 24.5351 75.0198 24.6152 74.8481 24.7537C74.6764 24.8922 74.554 25.082 74.4987 25.2949V25.2949Z" fill="white"/>
<path d="M106.354 69.2428C106.824 69.5122 107.236 69.8713 107.567 70.2996C107.897 70.7278 108.139 71.2167 108.28 71.7383C110.246 79.0883 109.201 86.9144 105.375 93.4986C101.548 100.083 95.2529 104.887 87.8704 106.857C80.4879 108.827 72.6216 107.801 65.9983 104.005C59.375 100.209 54.5359 93.9528 52.5433 86.6098C52.2595 85.5568 52.4077 84.4347 52.9553 83.4904C53.5029 82.5461 54.405 81.857 55.4632 81.5746C56.5213 81.2922 57.6489 81.4396 58.5978 81.9845C59.5468 82.5294 60.2393 83.4272 60.5231 84.4802C61.9371 89.729 65.3886 94.2038 70.1181 96.9203C74.8476 99.6368 80.4678 100.372 85.7424 98.9652C91.0169 97.5581 95.5137 94.1235 98.2435 89.417C100.973 84.7106 101.712 79.1178 100.298 73.869C100.086 73.0835 100.113 72.2531 100.376 71.4829C100.638 70.7126 101.124 70.0371 101.772 69.5419C102.421 69.0466 103.202 68.7538 104.017 68.7006C104.833 68.6473 105.646 68.836 106.354 69.2428V69.2428Z" fill="#EA7C5B"/>
<path d="M138.212 55.9301L114.6 47.4654C113.835 47.1911 113.3 46.7332 113.406 46.4425L115.747 39.976C115.852 39.6853 116.557 39.672 117.322 39.9462L140.934 48.4109C141.699 48.6851 142.234 49.1431 142.128 49.4338L139.787 55.9003C139.682 56.191 138.977 56.2043 138.212 55.9301Z" fill="#EA7C5B"/>
<path d="M120.612 44.8743C119.892 47.5476 118.393 49.9486 116.302 51.7737C114.211 53.5988 111.624 54.766 108.866 55.1277C106.109 55.4893 103.306 55.0292 100.812 53.8056C98.3171 52.5819 96.2433 50.6496 94.8524 48.2531C93.4615 45.8565 92.8159 43.1034 92.9974 40.3417C93.1788 37.5801 94.1792 34.934 95.8718 32.7381C97.5645 30.5422 99.8736 28.8951 102.507 28.0051C105.14 27.1151 107.98 27.0222 110.666 27.7381C114.269 28.698 117.34 31.0427 119.205 34.2564C121.071 37.47 121.577 41.2894 120.612 44.8743V44.8743Z" fill="white"/>
<path d="M117.987 44.171C117.407 46.3276 116.197 48.2645 114.51 49.7368C112.824 51.2091 110.736 52.1506 108.512 52.4423C106.288 52.734 104.027 52.3628 102.014 51.3757C100.002 50.3885 98.3293 48.8297 97.2073 46.8963C96.0853 44.963 95.5646 42.742 95.7111 40.5142C95.8576 38.2864 96.6646 36.1519 98.0302 34.3805C99.3958 32.6091 101.259 31.2805 103.383 30.5627C105.507 29.8449 107.798 29.7701 109.965 30.3477C112.871 31.1223 115.348 33.0137 116.853 35.6061C118.357 38.1984 118.765 41.2793 117.987 44.171V44.171Z" fill="#F6C7B9"/>
<path d="M115.872 43.6144C114.566 48.4663 109.555 51.3462 104.679 50.047C99.8038 48.7477 96.9097 43.7613 98.2153 38.9094C99.5209 34.0576 104.532 31.1776 109.407 32.4769C114.283 33.7761 117.177 38.7625 115.872 43.6144Z" fill="#E76943"/>
<path d="M107.029 41.255L115.135 37.0819C114.303 35.4675 113.001 34.14 111.4 33.2721C111.353 33.2444 111.304 33.22 111.253 33.1991C111.01 33.0685 110.761 32.9511 110.505 32.8474V32.8474C108.824 32.1592 106.973 31.9891 105.194 32.3592C104.903 32.4207 104.622 32.4932 104.358 32.561C102.061 33.2711 100.139 34.8536 99.0075 36.9653C98.8592 37.2367 98.7272 37.5167 98.6122 37.8036C98.5244 38.0153 98.4573 38.2276 98.3843 38.4341L107.029 41.255Z" fill="#EA7C5B"/>
<path d="M111.037 33.1063C110.855 33.0189 110.679 32.9157 110.484 32.8373C109.611 32.4817 108.689 32.2608 107.749 32.1821L107.054 41.1461L111.037 33.1063Z" fill="#E76943"/>
<path d="M107.573 38.0336C108.193 38.1335 108.768 38.4141 109.228 38.8397C109.687 39.2654 110.009 39.8171 110.154 40.425C110.298 41.0329 110.258 41.6697 110.038 42.2549C109.819 42.8401 109.43 43.3474 108.921 43.7127C108.412 44.0779 107.805 44.2847 107.178 44.3069C106.55 44.3291 105.931 44.1656 105.397 43.8372C104.863 43.5088 104.439 43.0302 104.178 42.462C103.917 41.8938 103.832 41.2614 103.933 40.6448L103.94 40.6186C104.081 39.7981 104.541 39.0662 105.222 38.5821C105.902 38.098 106.747 37.9008 107.573 38.0336V38.0336Z" fill="white"/>
<path d="M108.533 120.304C108.187 120.213 107.863 120.054 107.578 119.837C107.294 119.62 107.056 119.349 106.877 119.04C104.354 114.691 103.671 109.522 104.978 104.672C106.285 99.8211 109.475 95.6858 113.846 93.1756C118.217 90.6653 123.411 89.9856 128.285 91.2862C133.159 92.5867 137.315 95.7608 139.838 100.11C140.199 100.733 140.297 101.474 140.111 102.169C139.924 102.863 139.467 103.456 138.841 103.816C138.215 104.176 137.471 104.274 136.773 104.088C136.075 103.902 135.479 103.447 135.117 102.825C133.309 99.7365 130.345 97.4871 126.874 96.5688C123.403 95.6504 119.707 96.1379 116.597 97.9244C113.486 99.711 111.213 102.651 110.276 106.101C109.339 109.552 109.813 113.231 111.595 116.334C111.863 116.798 111.987 117.331 111.951 117.865C111.915 118.398 111.721 118.91 111.394 119.334C111.066 119.759 110.62 120.078 110.111 120.25C109.602 120.423 109.053 120.442 108.533 120.304V120.304Z" fill="white"/>
</svg>
